<?xml version="1.0" encoding="UTF-8" standalone="no"?> <svg id="Layer_1" data-name="Layer 1" xmlns="http://www.w3.org/2000/svg" viewBox="0 0 512 512"><defs><style>.cls-1{fill:#efeae6;}.cls-2{fill:#6d4135;}.cls-3{fill:#ffd38d;}</style></defs><title>image-filled</title><rect class="cls-1" x="21.33" y="85.33" width="469.33" height="341.33"/><path class="cls-2" d="M490.67,448H21.33A21.33,21.33,0,0,1,0,426.67V85.33A21.33,21.33,0,0,1,21.33,64H490.67A21.33,21.33,0,0,1,512,85.33V426.67A21.33,21.33,0,0,1,490.67,448Zm-448-42.67H469.33V106.67H42.67Z"/><polygon class="cls-3" points="405.33 341.33 298.67 192 234.67 277.33 192 234.67 106.67 341.33 405.33 341.33"/><path class="cls-2" d="M405.33,362.67H106.67A21.33,21.33,0,0,1,90,328l85.33-106.67a21.32,21.32,0,0,1,31.74-1.76l25.28,25.27L281.6,179.2c4.08-5.45,10.35-8.3,17.32-8.53A21.33,21.33,0,0,1,316,179.6L422.69,328.94a21.33,21.33,0,0,1-17.36,33.73ZM151.05,320H363.88l-65.64-91.89-46.51,62a21.33,21.33,0,0,1-32.15,2.28L193.77,266.6Z"/></svg>