<?xml version="1.0" encoding="UTF-8" standalone="no"?> <svg id="Layer_1" data-name="Layer 1" xmlns="http://www.w3.org/2000/svg" viewBox="0 0 128 128"><defs><style>.cls-1{fill:#2d3e50;}.cls-2{fill:#1d75b8;}</style></defs><title>a</title><path class="cls-1" d="M19.5239,73.8064H33.159a2.52666,2.52666,0,0,1,2.52666,2.52666v43.01059a2.52686,2.52686,0,0,1-2.52686,2.52686H19.5241a2.52672,2.52672,0,0,1-2.52672-2.52672V76.33292A2.52652,2.52652,0,0,1,19.5239,73.8064Z"/><path class="cls-1" d="M110.0186,59.70659h-25.292l.06162-.20372,1.05657-3.39727,1.02815-3.30245L89.948,42.91473l1.49721-4.82336a7.459,7.459,0,0,0,.199-.7581c.00471-.00478.00471-.00478,0-.0095a8.70457,8.70457,0,0,0,.21321-1.93784,8.86879,8.86879,0,0,0-.1421-1.58731,9.10718,9.10718,0,0,0-17.00985-2.69123L50.09578,69.77031A24.5,24.5,0,0,1,41.76618,78.062a.01729.01729,0,0,1-.01421.00478,3.34443,3.34443,0,0,0-1.70571,2.89966v37.559A3.30564,3.30564,0,0,0,42.331,121.6741q.11313.03658.22961.0651c.22742.05554,11.71306,2.17859,11.71306,2.17859l6.97489.79253a65.08237,65.08237,0,0,0,7.34926.41625H99.13106a9.87739,9.87739,0,0,0,9.67179-7.87284l9.94335-47.97619C118.7462,62.521,113.16468,60.0714,110.0186,59.70659Z"/><path class="cls-2" d="M50.25161,31.29929A28.55121,28.55121,0,0,1,30.52867,11.57642a.58494.58494,0,0,0-1.12591,0A28.55125,28.55125,0,0,1,9.67988,31.29929a.58494.58494,0,0,0,0,1.12591A28.55121,28.55121,0,0,1,29.40275,52.14814a.585.585,0,0,0,1.12591,0A28.55118,28.55118,0,0,1,50.25161,32.4252.585.585,0,0,0,50.25161,31.29929Z"/><path class="cls-2" d="M90.46659,17.37676a19.46385,19.46385,0,0,1,13.44535,13.44535v.00007a.39877.39877,0,0,0,.76753,0v-.00007A19.464,19.464,0,0,1,118.1248,17.37676a.39875.39875,0,0,0,0-.76753A19.46372,19.46372,0,0,1,104.67946,3.16389a.39875.39875,0,0,0-.76753,0A19.4636,19.4636,0,0,1,90.46659,16.60924.39875.39875,0,0,0,90.46659,17.37676Z"/></svg>